<?xml version="1.0" encoding="utf-8"?>
<!-- Generator: Adobe Illustrator 19.2.1, SVG Export Plug-In . SVG Version: 6.00 Build 0)  -->
<svg version="1.1" id="layer" xmlns="http://www.w3.org/2000/svg" xmlns:xlink="http://www.w3.org/1999/xlink" x="0px" y="0px"
	 viewBox="0 0 652 652" style="enable-background:new 0 0 652 652;" xml:space="preserve">
<style type="text/css">
	.st0{fill:#00418D;}
	.st1{fill:#EF820D;}
</style>
<path class="st0" d="M146.1,288.8c-0.4,10.8,9.8,13.5,18.8,16c7.3,1.9,14.1,3.8,14.1,9.6c0,3.9-3.1,8.4-11.9,8.4
	c-6.6,0-12.1-2.8-16-8l-0.2-0.3l-6.8,4.8l0.2,0.3c5.1,6.4,13.7,10.2,23,10.2c9.7,0,20.2-4.9,20.2-15.8c0-11.4-10.6-14.4-20-17
	c-6.9-1.9-12.9-3.6-12.9-8.3c0-4.7,3.7-7.4,9.9-7.4c5.6,0,9.8,2.1,14.4,7.3l0.2,0.3l6-4.9l-0.2-0.3c-3.8-5.3-12.1-9.3-19.7-9.4
	C153.7,274.1,146.4,279.7,146.1,288.8"/>
<path class="st0" d="M233.9,275.3h-8.2v39.6c-3.9,3.8-10.5,7.8-15.9,7.8c-6.2,0-8.9-2.8-8.9-9v-38.5h-8.6V314
	c0,9.9,6.2,15.8,16.7,15.8c5.8,0,11.7-2.8,16.7-7.9v6.9h8.6v-53.4H233.9"/>
<path class="st0" d="M251.6,282.1v-6.9H243v53.4h8.5v-39.6c3.9-3.8,10.5-7.8,15.9-7.8c6.2,0,8.9,2.8,8.9,9v38.5h8.6V290
	c0-9.9-6.2-15.8-16.7-15.8C262.5,274.3,256.6,277.1,251.6,282.1"/>
<path class="st0" d="M356.5,302c0,16.9,9.2,27.7,23.6,27.7c14.3,0,23.6-10.9,23.6-27.7c0-16.8-9.3-27.7-23.6-27.7
	C365.8,274.3,356.5,285.2,356.5,302 M365.1,302c0-13,5.6-20.7,15-20.7c9.4,0,15,7.8,15,20.7c0,13-5.6,20.7-15,20.7
	C370.7,322.7,365.1,315,365.1,302"/>
<path class="st0" d="M451.7,275.3h-8.2v39.6c-3.9,3.8-10.5,7.8-15.9,7.8c-6.2,0-8.9-2.8-8.9-9v-38.5h-8.6V314
	c0,9.9,6.2,15.8,16.7,15.8c5.8,0,11.7-2.8,16.7-7.9v6.9h8.6v-53.4H451.7"/>
<path class="st0" d="M470.8,282.4l-0.2,0.3v-0.3H470.8 M470.6,282.1v-6.9h-8.6v53.4h8.6v-39.6c3.9-3.8,10.4-7.8,15.9-7.8
	c6.2,0,8.9,2.8,8.9,9v38.5h8.6V290c0-9.9-6.2-15.8-16.7-15.8C481.5,274.3,475.6,277.1,470.6,282.1"/>
<path class="st0" d="M525.9,257.9h-8.2v17.3h-9.3v7h9.3v38.4c0,7.6,4.8,9.1,12.5,9.1c4.7,0,7.9-0.4,9.3-0.8l0.3-0.1v-6.7l-0.4,0.1
	c-2.3,0.3-4.6,0.5-6.9,0.5c-5.4,0-6.1-1.8-6.1-3.3v-37.2h13.1v-7h-13.1v-17.3H525.9"/>
<path class="st0" d="M572.9,274.5c-9.5,0-14.1,4.1-18.3,10.8v-9.9H546v53.4h8.6v-29.6c4-11.6,9.3-16.5,18.3-16.7l0.3,0v-8H572.9"/>
<polygon class="st0" points="626.4,275.7 598.2,347.6 588.8,347.6 598.2,325.7 579.1,275.7 588.6,275.7 602.9,314.7 617.3,275.7 "/>
<path class="st0" d="M337.6,329.7c-3.6,0-6.9-0.5-9.9-1.7c-3-1.1-5.6-2.8-7.8-5.1c-2.2-2.3-3.8-5.1-5-8.5c-1.2-3.4-1.8-7.5-1.8-12.1
	c0-4.6,0.6-8.6,1.9-12c1.2-3.4,2.9-6.2,5-8.5c2.1-2.3,4.7-4,7.8-5.3c3.1-1.2,6.4-1.9,10-1.9c2.9,0,5.7,0.4,8.4,1.2
	c2.7,0.8,5.1,1.7,7.2,2.8v9.9h-0.5c-0.6-0.5-1.4-1.1-2.4-1.8c-1-0.7-2.2-1.4-3.6-2.1c-1.2-0.6-2.7-1.2-4.3-1.6
	c-1.7-0.5-3.3-0.7-4.8-0.7c-4.6,0-8.3,1.7-11.1,5.2c-2.8,3.5-4.2,8.4-4.2,14.7c0,6.2,1.3,11,4,14.5c2.7,3.5,6.4,5.2,11.2,5.2
	c2.9,0,5.6-0.6,8.3-1.8c2.6-1.2,4.9-2.7,6.9-4.5h0.5v9.9c-0.9,0.4-2,0.9-3.3,1.5c-1.3,0.6-2.5,1-3.6,1.3c-1.5,0.4-2.9,0.8-4.1,1
	C341,329.6,339.5,329.7,337.6,329.7"/>
<path class="st0" d="M94.9,283.5c-2.3-0.4-4.4-0.8-6.4-1.3c-2-0.5-4.3-0.8-7-0.8c-6.1,0-10.8,1.3-14.3,3.8c-3.5,2.5-5.2,5.7-5.2,9.4
	c0,2.8,1.3,5.1,3.8,7.1c2.6,1.9,5.3,3.6,8.3,5c3,1.4,5.7,2.8,8.3,4.3c2.6,1.5,3.8,3.3,3.8,5.4c0,1.7-0.6,3.1-1.9,4.1
	c-1.3,1-3.3,1.9-6.2,1.5c-2.5-0.3-3.7-1.1-6.7-3.4c-3-2.3-4.3-5.3-5.3-8.8c0-0.2-0.2-0.3-0.6-0.4c-0.3-0.1-0.7-0.1-1-0.1
	c-0.3,0-0.7,0-1.1,0.2c-0.4,0.1-0.6,0.2-0.6,0.3c0.1,1.8,0.2,4,0.2,6.3c0,2.4,0,4.3,0.1,5.7c3.2,0.5,5.4,1.4,7.9,2.2
	c2.5,0.8,3.6,1.3,7.1,1.3c5.7,0,10.4-1.6,14.2-4c3.8-2.4,5.7-5.7,5.7-10c0-2.9-1.3-5.4-3.8-7.3c-2.6-1.9-5.3-3.6-8.2-5
	c-3.1-1.5-5.9-2.9-8.4-4.3c-2.5-1.4-3.7-3.1-3.7-5.1c0-1.5,0.7-2.8,2-3.7c1.3-1,3.1-1.5,5.5-1.5c2.7,0,4.9,0.9,6.8,2.6
	c1.8,1.8,3.2,4.2,4.2,7.3c0.1,0.2,0.3,0.3,0.7,0.4c0.3,0.1,0.7,0.1,1,0.1c0.2,0,0.6,0,1-0.2c0.4-0.1,0.6-0.2,0.6-0.3
	c-0.2-1.4-0.4-3.2-0.5-5.4C95,286.7,94.9,284.9,94.9,283.5"/>
<path class="st1" d="M98.4,297.3c0.8-0.8,1.1-1.6,1.2-2.3l0.1-0.1l0-0.2c0-0.2,0-0.4,0-0.5v-0.3l0-0.3c-0.1-0.8-0.2-1.8-0.3-2.9
	l15.9-3.5L98.4,297.3 M95,294.6c-0.4,0.1-0.7,0.2-1,0.2c-0.3,0-0.7,0-1-0.1c-0.3-0.1-0.6-0.2-0.7-0.4c-0.9-3.1-2.3-5.5-4.2-7.3
	c-1.8-1.8-4.1-2.7-6.7-2.7c-2.3,0-4.1,0.5-5.5,1.5c-1.3,1-2,2.2-2,3.7c0,2,1.2,3.7,3.7,5.1c2.5,1.4,5.3,2.8,8.4,4.3
	c2.9,1.4,5.6,3.1,8.2,5c2.6,1.9,3.8,4.4,3.8,7.3c0,4.2-1.9,7.6-5.6,10c-3.8,2.4-8.5,4-14.2,4c-3.5,0-4.6-0.5-7.1-1.3
	c-2.5-0.8-4.7-1.7-7.9-2.2c0-1.4-0.1-3.3-0.1-5.7c0-2.4-0.1-4.5-0.2-6.3c0-0.1,0.2-0.2,0.6-0.3c0.4-0.1,0.8-0.1,1.1-0.1
	c0.3,0,0.7,0,1,0.1c0.3,0.1,0.5,0.2,0.6,0.4c0.9,3.5,2.3,6.5,5.3,8.8c3,2.3,4.2,3,6.7,3.4c2.8,0.4,4.9-0.5,6.2-1.5
	c1.3-1,1.9-2.4,1.9-4.1c0-2.1-1.3-3.9-3.8-5.4c-2.6-1.5-5.3-2.9-8.3-4.3c-3-1.4-5.8-3.1-8.3-5c-2.6-1.9-3.8-4.3-3.8-7.1
	c0-3.7,1.7-6.8,5.2-9.4c3.5-2.5,8.2-3.8,14.3-3.8c2.7,0,5,0.3,7,0.8c2,0.5,4.1,1,6.4,1.3c0,1.4,0.1,3.2,0.3,5.4
	c0.1,2.2,0.3,3.9,0.5,5.4C95.6,294.4,95.4,294.5,95,294.6 M88.5,327.8l0.8-0.4c1.1-0.4,2.2-0.9,3.2-1.4l2.6,11.3L88.5,327.8z
	 M66,337.5l1.9-10.3l3.7,1.2L66,337.5z M73.3,277.8l-4.7,1.5l-3-12.9L73.3,277.8z M95.3,267.1l-2.7,11.8c-1.1-0.2-2.1-0.5-3.1-0.7
	c-0.6-0.2-1.2-0.3-1.8-0.4L95.3,267.1z M102,308.3l13.3,8.3L102,314c0.2-0.9,0.2-1.8,0.2-2.8c0-0.9-0.1-1.7-0.2-2.5V308.3z
	 M59.2,308.1c-0.3,0.7-0.3,1.4-0.3,1.6v0.2l0,0.2c0.1,1.1,0.2,2.4,0.2,3.8l-14,3.1l14.2-9V308.1z M57.9,294.5c0,0.4,0,0.8,0.1,1.2
	l-12.7-8.5l13.3,3.1C58,291.8,57.9,293.3,57.9,294.5 M124.5,291.3L124.5,291.3c-2-8.2-6.2-15.6-11.9-21.4l0.1,0.2l-13.4,17L99,285
	c-0.1-2.4-0.2-5-0.2-5l-0.1,0l17.8-18.4l-12.2,1.6l-0.2,0c-6.9-4.3-15.1-6.8-23.8-6.8l0.2,0l2.9,20.7l-2.9,0.2
	c-0.9,0-1.8,0.1-2.7,0.1l0-29.4l-7.4,9.5c-8.5,1.9-16,6.1-22,12l0.3,0.3l15.6,12.3c-1.7,1.3-2.9,2.7-3.9,4l-20-20.8l1.3,12.3l0,0.2
	c-4.3,7-6.8,15.2-6.8,24.1v0.2l3.1-0.5l20.4-2.8l0.5,0.6c0.7,1.7,1.9,3.4,3.9,4.9l0.2,0.3l-36.6,0.2l9.3,7.1l0.3,0.2
	c2,8.8,6.6,16.7,12.9,22.7l0.2-0.3l10-13.3l0.1,4l0,0v0.1l2.5,0.3l0.6,0.1l-17.1,17l11.9-1.5l0.3-0.1c6.8,4,14.6,6.3,23,6.3
	c0.5,0,1.3,0,1.3,0l-2.6-18.1l0.6-0.1c1.4-0.1,2.7-0.2,4-0.4l0.9-0.1v26.9l7.4-9.5l0-0.2c11.4-2.3,21-12.6,21-12.6l-14.9-11.7
	c1.3-1.4,2.3-2.9,3-4.7l20.5,20.4L120,324l0.2-0.3c3.5-6.5,5.5-13.9,5.5-21.7v-0.5l-25.1,3.3l-0.1-0.1c-0.9-1.5-2.2-2.9-3.7-4.1
	c-0.7-0.5-1.4-1-2.1-1.4l-0.4-0.3l39.8-0.2L124.5,291.3z"/>
<path class="st0" d="M430.9,379.6c-17.4,3.8-19.7,7.4-19.7,12.2c0,4.2,2.8,6.5,6.8,6.5c4.1,0,9.1-2.4,12.9-6.3V379.6 M431.7,401.1
	l-0.6-4.6c-4.5,3.6-8,5.3-13.8,5.3c-5.9,0-10.5-3.7-10.5-9.9c0-10.4,8.5-12.3,24.3-15.8v-2.6c0-5-2.2-7.6-8.7-7.6
	c-4.5,0-8.3,2.5-11,6.9l-2.9-1.7c3.3-6.1,8-8.6,14.1-8.6c8.6,0,12.7,3.5,12.7,11.9v19.9c0,1.9,0.1,4.4,0.6,6.9H431.7z"/>
<path class="st0" d="M451.8,401.1h-4.4v-38h4.4V401.1z M447.4,348.3h4.4v6.4h-4.4V348.3z"/>
<path class="st0" d="M463.4,401.1v-38h4.4v7.2h0.1c2-4.7,6.1-8,11-8h2v4.2h-2c-4.8,0-11.1,5.7-11.1,13v21.5H463.4"/>
<rect x="487.9" y="348.3" class="st0" width="4.4" height="52.8"/>
<path class="st0" d="M508.5,401.1h-4.4v-38h4.4V401.1z M504.2,348.3h4.4v6.4h-4.4V348.3z"/>
<path class="st0" d="M520.5,401.1v-38h4.4v6c4.1-4.2,7.5-6.7,13-6.7c7.9,0,11.3,4.5,11.3,12.8v25.9h-4.4v-25.5
	c0-6.3-1.9-9.7-7.8-9.7c-4.7,0-7.3,2.9-12.1,7.2v28H520.5"/>
<path class="st0" d="M582.2,378.7c-0.9-7.8-4.3-12.8-11-12.9c-7.7-0.1-11,7.8-11.1,12.9H582.2 M560.1,382.2
	c0,8.6,3.6,16.1,12.2,16.1c4.9,0,7.3-1.7,11.1-7.7l3.6,1.9c-4.1,6.7-7.8,9.3-15.1,9.3c-9.9,0-16.2-6.4-16.2-19.7
	c0-11.8,6-19.7,15.6-19.7c10.3,0,15.2,8.1,15.2,19.9H560.1z"/>
<path class="st0" d="M594.7,391.9c3.6,5.1,6.8,6.4,11.8,6.4c4.8,0,8.5-3.1,8.5-7.2c0-11-22.4-4.8-22.4-18.3
	c0-7.2,5.6-10.4,12.1-10.4c6.4,0,10.4,2.5,13.1,6.9l-3.4,2.3c-2.6-3.5-5.3-5.7-9.9-5.7c-4.2,0-7.5,2-7.5,6.6
	c0,9.3,22.4,3.8,22.4,18.6c0,6.8-6.3,10.7-13.2,10.7c-5.8,0-11.1-2.3-14.7-7.7L594.7,391.9"/>
</svg>
